<mxfile host="app.diagrams.net" agent="Mozilla/5.0 (Windows NT 10.0; Win64; x64) AppleWebKit/537.36 (KHTML, like Gecko) Chrome/133.0.0.0 Safari/537.36 OPR/118.0.0.0 (Edition std-1)" version="27.0.6">
  <diagram name="Page-1" id="aBjQCEkGV0ykoDEzOuvz">
    <mxGraphModel dx="998" dy="570" grid="1" gridSize="10" guides="1" tooltips="1" connect="1" arrows="1" fold="1" page="1" pageScale="1" pageWidth="827" pageHeight="1169" math="0" shadow="0">
      <root>
        <mxCell id="0" />
        <mxCell id="1" parent="0" />
        <mxCell id="fxTx4ZfL5YpmLXAeU2qc-1" value="User" style="shape=umlActor;verticalLabelPosition=bottom;verticalAlign=top;html=1;outlineConnect=0;" vertex="1" parent="1">
          <mxGeometry x="150" y="250" width="30" height="60" as="geometry" />
        </mxCell>
        <mxCell id="fxTx4ZfL5YpmLXAeU2qc-4" value="Spotify" style="shape=umlActor;verticalLabelPosition=bottom;verticalAlign=top;html=1;outlineConnect=0;" vertex="1" parent="1">
          <mxGeometry x="150" y="370" width="30" height="60" as="geometry" />
        </mxCell>
        <mxCell id="fxTx4ZfL5YpmLXAeU2qc-9" value="" style="swimlane;startSize=0;" vertex="1" parent="1">
          <mxGeometry x="230" y="90" width="556" height="400" as="geometry">
            <mxRectangle x="214" y="20" width="50" height="40" as="alternateBounds" />
          </mxGeometry>
        </mxCell>
        <mxCell id="fxTx4ZfL5YpmLXAeU2qc-10" value="Login spotify" style="ellipse;whiteSpace=wrap;html=1;" vertex="1" parent="fxTx4ZfL5YpmLXAeU2qc-9">
          <mxGeometry x="36" y="100" width="120" height="50" as="geometry" />
        </mxCell>
        <mxCell id="fxTx4ZfL5YpmLXAeU2qc-11" value="Disconnect Spotify&lt;span style=&quot;color: rgba(0, 0, 0, 0); font-family: monospace; font-size: 0px; text-align: start; text-wrap-mode: nowrap;&quot;&gt;%3CmxGraphModel%3E%3Croot%3E%3CmxCell%20id%3D%220%22%2F%3E%3CmxCell%20id%3D%221%22%20parent%3D%220%22%2F%3E%3CmxCell%20id%3D%222%22%20value%3D%22Connect%20spotify%22%20style%3D%22ellipse%3BwhiteSpace%3Dwrap%3Bhtml%3D1%3B%22%20vertex%3D%221%22%20parent%3D%221%22%3E%3CmxGeometry%20x%3D%22250%22%20y%3D%22160%22%20width%3D%22120%22%20height%3D%2250%22%20as%3D%22geometry%22%2F%3E%3C%2FmxCell%3E%3C%2Froot%3E%3C%2FmxGraphModel%3E&lt;/span&gt;" style="ellipse;whiteSpace=wrap;html=1;" vertex="1" parent="fxTx4ZfL5YpmLXAeU2qc-9">
          <mxGeometry x="36" y="170" width="120" height="50" as="geometry" />
        </mxCell>
        <mxCell id="fxTx4ZfL5YpmLXAeU2qc-12" value="Control Music actions" style="ellipse;whiteSpace=wrap;html=1;" vertex="1" parent="fxTx4ZfL5YpmLXAeU2qc-9">
          <mxGeometry x="36" y="240" width="120" height="50" as="geometry" />
        </mxCell>
        <mxCell id="fxTx4ZfL5YpmLXAeU2qc-21" value="Verify Login Info&lt;span style=&quot;color: rgba(0, 0, 0, 0); font-family: monospace; font-size: 0px; text-align: start; text-wrap-mode: nowrap;&quot;&gt;%3CmxGraphModel%3E%3Croot%3E%3CmxCell%20id%3D%220%22%2F%3E%3CmxCell%20id%3D%221%22%20parent%3D%220%22%2F%3E%3CmxCell%20id%3D%222%22%20value%3D%22Login%20spotify%22%20style%3D%22ellipse%3BwhiteSpace%3Dwrap%3Bhtml%3D1%3B%22%20vertex%3D%221%22%20parent%3D%221%22%3E%3CmxGeometry%20x%3D%22250%22%20y%3D%22170%22%20width%3D%22120%22%20height%3D%2250%22%20as%3D%22geometry%22%2F%3E%3C%2FmxCell%3E%3C%2Froot%3E%3C%2FmxGraphModel%3E&lt;/span&gt;" style="ellipse;whiteSpace=wrap;html=1;" vertex="1" parent="fxTx4ZfL5YpmLXAeU2qc-9">
          <mxGeometry x="246" y="80" width="120" height="50" as="geometry" />
        </mxCell>
        <mxCell id="fxTx4ZfL5YpmLXAeU2qc-22" value="Display error message" style="ellipse;whiteSpace=wrap;html=1;" vertex="1" parent="fxTx4ZfL5YpmLXAeU2qc-9">
          <mxGeometry x="246" y="140" width="120" height="50" as="geometry" />
        </mxCell>
        <mxCell id="fxTx4ZfL5YpmLXAeU2qc-29" value="" style="endArrow=classic;html=1;rounded=0;entryX=1;entryY=0.6;entryDx=0;entryDy=0;entryPerimeter=0;exitX=0;exitY=0.5;exitDx=0;exitDy=0;dashed=1;" edge="1" parent="fxTx4ZfL5YpmLXAeU2qc-9" source="fxTx4ZfL5YpmLXAeU2qc-22" target="fxTx4ZfL5YpmLXAeU2qc-10">
          <mxGeometry width="50" height="50" relative="1" as="geometry">
            <mxPoint x="166" y="240" as="sourcePoint" />
            <mxPoint x="216" y="190" as="targetPoint" />
          </mxGeometry>
        </mxCell>
        <mxCell id="fxTx4ZfL5YpmLXAeU2qc-32" value="&amp;lt;&amp;lt;Extend&amp;gt;&amp;gt;" style="edgeLabel;html=1;align=center;verticalAlign=middle;resizable=0;points=[];" vertex="1" connectable="0" parent="fxTx4ZfL5YpmLXAeU2qc-29">
          <mxGeometry x="0.1445" y="3" relative="1" as="geometry">
            <mxPoint as="offset" />
          </mxGeometry>
        </mxCell>
        <mxCell id="fxTx4ZfL5YpmLXAeU2qc-30" value="" style="endArrow=classic;html=1;rounded=0;entryX=1;entryY=0.5;entryDx=0;entryDy=0;exitX=0;exitY=0.5;exitDx=0;exitDy=0;dashed=1;" edge="1" parent="fxTx4ZfL5YpmLXAeU2qc-9" source="fxTx4ZfL5YpmLXAeU2qc-21" target="fxTx4ZfL5YpmLXAeU2qc-10">
          <mxGeometry width="50" height="50" relative="1" as="geometry">
            <mxPoint x="276" y="195" as="sourcePoint" />
            <mxPoint x="216" y="160" as="targetPoint" />
          </mxGeometry>
        </mxCell>
        <mxCell id="fxTx4ZfL5YpmLXAeU2qc-31" value="&amp;lt;&amp;lt;Include&amp;gt;&amp;gt;" style="edgeLabel;html=1;align=center;verticalAlign=middle;resizable=0;points=[];" vertex="1" connectable="0" parent="fxTx4ZfL5YpmLXAeU2qc-30">
          <mxGeometry x="-0.24" y="-2" relative="1" as="geometry">
            <mxPoint as="offset" />
          </mxGeometry>
        </mxCell>
        <mxCell id="fxTx4ZfL5YpmLXAeU2qc-33" value="Data required from&lt;div&gt;database&amp;nbsp;&lt;/div&gt;" style="ellipse;whiteSpace=wrap;html=1;" vertex="1" parent="fxTx4ZfL5YpmLXAeU2qc-9">
          <mxGeometry x="426" y="200" width="120" height="50" as="geometry" />
        </mxCell>
        <mxCell id="fxTx4ZfL5YpmLXAeU2qc-35" value="" style="endArrow=classic;html=1;rounded=0;entryX=0;entryY=0.5;entryDx=0;entryDy=0;exitX=1;exitY=0.5;exitDx=0;exitDy=0;dashed=1;" edge="1" parent="fxTx4ZfL5YpmLXAeU2qc-9" source="fxTx4ZfL5YpmLXAeU2qc-21" target="fxTx4ZfL5YpmLXAeU2qc-33">
          <mxGeometry width="50" height="50" relative="1" as="geometry">
            <mxPoint x="296" y="110" as="sourcePoint" />
            <mxPoint x="206" y="130" as="targetPoint" />
          </mxGeometry>
        </mxCell>
        <mxCell id="fxTx4ZfL5YpmLXAeU2qc-36" value="&amp;lt;&amp;lt;Include&amp;gt;&amp;gt;" style="edgeLabel;html=1;align=center;verticalAlign=middle;resizable=0;points=[];" vertex="1" connectable="0" parent="fxTx4ZfL5YpmLXAeU2qc-35">
          <mxGeometry x="-0.24" y="-2" relative="1" as="geometry">
            <mxPoint as="offset" />
          </mxGeometry>
        </mxCell>
        <mxCell id="fxTx4ZfL5YpmLXAeU2qc-17" value="Waze" style="text;html=1;align=center;verticalAlign=middle;resizable=0;points=[];autosize=1;strokeColor=none;fillColor=none;" vertex="1" parent="fxTx4ZfL5YpmLXAeU2qc-9">
          <mxGeometry x="246" width="50" height="30" as="geometry" />
        </mxCell>
        <mxCell id="fxTx4ZfL5YpmLXAeU2qc-14" value="" style="endArrow=none;html=1;rounded=0;exitX=0.5;exitY=0.5;exitDx=0;exitDy=0;exitPerimeter=0;entryX=0;entryY=0.5;entryDx=0;entryDy=0;" edge="1" parent="1" source="fxTx4ZfL5YpmLXAeU2qc-1" target="fxTx4ZfL5YpmLXAeU2qc-11">
          <mxGeometry width="50" height="50" relative="1" as="geometry">
            <mxPoint x="390" y="320" as="sourcePoint" />
            <mxPoint x="440" y="270" as="targetPoint" />
          </mxGeometry>
        </mxCell>
        <mxCell id="fxTx4ZfL5YpmLXAeU2qc-15" value="" style="endArrow=none;html=1;rounded=0;exitX=0.5;exitY=0.5;exitDx=0;exitDy=0;exitPerimeter=0;entryX=0;entryY=0.5;entryDx=0;entryDy=0;" edge="1" parent="1" source="fxTx4ZfL5YpmLXAeU2qc-1" target="fxTx4ZfL5YpmLXAeU2qc-10">
          <mxGeometry width="50" height="50" relative="1" as="geometry">
            <mxPoint x="390" y="320" as="sourcePoint" />
            <mxPoint x="440" y="270" as="targetPoint" />
          </mxGeometry>
        </mxCell>
        <mxCell id="fxTx4ZfL5YpmLXAeU2qc-16" value="" style="endArrow=none;html=1;rounded=0;exitX=0.5;exitY=0.5;exitDx=0;exitDy=0;exitPerimeter=0;entryX=0;entryY=0.5;entryDx=0;entryDy=0;" edge="1" parent="1" source="fxTx4ZfL5YpmLXAeU2qc-1" target="fxTx4ZfL5YpmLXAeU2qc-12">
          <mxGeometry width="50" height="50" relative="1" as="geometry">
            <mxPoint x="430" y="260" as="sourcePoint" />
            <mxPoint x="715" y="260" as="targetPoint" />
          </mxGeometry>
        </mxCell>
        <mxCell id="fxTx4ZfL5YpmLXAeU2qc-18" value="" style="endArrow=none;html=1;rounded=0;entryX=0;entryY=0.5;entryDx=0;entryDy=0;" edge="1" parent="1" source="fxTx4ZfL5YpmLXAeU2qc-4" target="fxTx4ZfL5YpmLXAeU2qc-12">
          <mxGeometry width="50" height="50" relative="1" as="geometry">
            <mxPoint x="230" y="310" as="sourcePoint" />
            <mxPoint x="325" y="375" as="targetPoint" />
          </mxGeometry>
        </mxCell>
      </root>
    </mxGraphModel>
  </diagram>
</mxfile>
